<?xml version="1.0" encoding="UTF-8"?><svg id="Layer_1" xmlns="http://www.w3.org/2000/svg" viewBox="0 0 193.89 192.33"><defs><style>.cls-1{fill:#fff;opacity:.8;}</style></defs><path class="cls-1" d="M163.67,137.63l13.6,13.6c10.48-15.49,16.61-34.17,16.61-54.29C193.89,43.4,150.49,0,96.95,0S0,43.4,0,96.95c0,20.11,6.13,38.8,16.62,54.29l41.1-41.1,13.1-13.1,13.02,13.02,13.1,13.08,40.61,40.58,13.62,13.6c5.14-3.48,9.94-7.44,14.32-11.82l-55.44-55.44,13.02-13.02,40.6,40.6ZM109.97,83.93l-13.02,13.02-26.04-26.04-26.21,26.21-13.02,13.02-9.52,9.51c-2.15-7.08-3.31-14.59-3.35-22.37v-.33c0-7.8,1.14-15.32,3.27-22.43,1.92-6.43,4.65-12.51,8.06-18.12,3.26-5.35,7.14-10.29,11.55-14.7s9.26-8.23,14.57-11.47c5.57-3.41,11.6-6.13,17.98-8.06,7.18-2.18,14.81-3.35,22.7-3.35s15.52,1.17,22.7,3.35c6.38,1.93,12.41,4.65,17.98,8.06,5.31,3.24,10.19,7.11,14.56,11.48,4.41,4.41,8.3,9.34,11.55,14.69,7.19,11.82,11.33,25.7,11.33,40.55,0,7.89-1.17,15.52-3.34,22.7l-48.74-48.74-13.02,13.02Z"/><path class="cls-1" d="M134.32,186.41c-6.38,2.67-13.13,4.66-20.11,5.91l-4.23-4.22-13.02-13.02h0s-.01-.01-.01-.01l-13.01-13.02-13.02-13.01h0s-.01-.01-.01-.01l-13.01,13.02-13.02,13.02h-.01s-2.19,2.21-2.19,2.21c-5.13-3.47-9.9-7.42-14.26-11.78l3.45-3.45,9.85-9.86,3.16-3.15h0s.01-.01.01-.01l13.02-13.02,13.02-13.02,26.04,26.04,13.02,13.03,13.01,13.01h.01s11.33,11.34,11.33,11.34Z"/></svg>